<svg width="128" height="38" viewBox="0 0 128 38" fill="none" xmlns="http://www.w3.org/2000/svg">
<g clip-path="url(#clip0)">
<path d="M123.4 38H4.5C2 38 0 36 0 33.5V4.5C0 2 2 0 4.5 0H123.5C126 0 128.1 2 128.1 4.5V33.5C128 36 125.9 38 123.4 38Z" fill="white"/>
<path d="M43.6 11.7C43.2 11.7 42.9 11.6 42.6 11.4C42.3 11.2 42.2 10.9 42.2 10.6H41.4C41.4 11 41.5 11.3 41.7 11.6C41.9 11.9 42.2 12.1 42.5 12.2C42.8 12.3 43.2 12.4 43.6 12.4C44.3 12.4 44.9 12.2 45.3 11.9C45.7 11.6 45.9 11.1 45.9 10.6C45.9 9.9 45.5 9.4 44.8 9.1C45.1 9 45.4 8.8 45.5 8.5C45.7 8.3 45.8 8 45.8 7.7C45.8 7.1 45.6 6.7 45.2 6.4C44.9 6.2 44.3 6 43.6 6C43.2 6 42.8 6.1 42.5 6.2C42.2 6.3 41.9 6.6 41.7 6.8C41.5 7.1 41.4 7.4 41.4 7.7H42.2C42.2 7.4 42.3 7.2 42.6 7C42.8 6.8 43.2 6.7 43.5 6.7C43.9 6.7 44.3 6.8 44.5 7C44.9 7.2 45 7.4 45 7.8C45 8.1 44.9 8.4 44.7 8.6C44.5 8.8 44.2 8.9 43.7 8.9H43V9.6H43.8C44.7 9.6 45.2 10 45.2 10.7C45.2 11 45.1 11.3 44.8 11.5C44.4 11.6 44.1 11.7 43.6 11.7Z" fill="black"/>
<path d="M48.9 9.49961C48.2 9.49961 47.7 9.59961 47.3 9.89961C46.9 10.1996 46.7 10.4996 46.7 10.9996C46.7 11.3996 46.8 11.6996 47.1 11.9996C47.4 12.2996 47.8 12.3996 48.2 12.3996C48.7 12.3996 49.2 12.1996 49.5 11.7996C49.5 11.9996 49.6 12.1996 49.6 12.2996H50.4V12.1996C50.3 11.8996 50.2 11.5996 50.2 11.1996V9.09961C50.2 8.59961 50 8.29961 49.7 7.99961C49.4 7.69961 49 7.59961 48.4 7.59961C48.1 7.59961 47.7 7.69961 47.5 7.79961C47.2 7.89961 47 8.09961 46.8 8.29961C46.6 8.49961 46.6 8.69961 46.6 8.99961H47.4C47.4 8.79961 47.5 8.59961 47.7 8.49961C47.9 8.39961 48.1 8.29961 48.4 8.29961C48.7 8.29961 49 8.39961 49.1 8.49961C49.3 8.69961 49.4 8.89961 49.4 9.19961V9.59961H48.9V9.49961ZM49.7 10.9996C49.6 11.1996 49.4 11.3996 49.2 11.4996C49 11.5996 48.7 11.6996 48.5 11.6996C48.2 11.6996 48 11.5996 47.9 11.4996C47.7 11.3996 47.6 11.1996 47.6 10.8996C47.6 10.2996 48.1 9.99961 49.1 9.99961H49.7V10.9996Z" fill="black"/>
<path d="M52.6 8.3002H54.7001V7.7002H51.8V12.3002H52.6V8.3002Z" fill="black"/>
<path d="M56.2 11.9002C56.5 12.3002 57 12.4002 57.5 12.4002C58.1 12.4002 58.5 12.2002 58.8 11.8002C59.1 11.4002 59.3 10.8002 59.3 10.1002V10.0002C59.3 9.3002 59.1 8.7002 58.8 8.3002C58.5 7.9002 58 7.7002 57.5 7.7002C56.9 7.7002 56.5 7.9002 56.1 8.3002V7.8002H55.4V14.2002H56.2V11.9002ZM56.2 8.9002C56.4 8.5002 56.8 8.3002 57.3 8.3002C57.7 8.3002 58 8.5002 58.2 8.8002C58.4 9.1002 58.5 9.5002 58.5 10.0002C58.5 10.6002 58.4 11.0002 58.2 11.3002C58 11.6002 57.7 11.8002 57.3 11.8002C56.8 11.8002 56.4 11.6002 56.2 11.2002V8.9002Z" fill="black"/>
<path d="M62.9 7.7002L61.7999 11.2002L60.5999 7.7002H59.7L61.4 12.3002L61.2 12.8002C61.1 13.1002 60.9999 13.3002 60.7999 13.4002C60.5999 13.5002 60.4 13.6002 60.2 13.6002H60V14.2002L60.2999 14.3002H60.5C61.1 14.3002 61.6 13.9002 61.9 13.1002L63.7999 7.8002H62.9V7.7002Z" fill="black"/>
<path d="M66.1 11.8002C65.8 11.8002 65.5 11.7002 65.3 11.6002C65.1 11.4002 65 11.2002 65 11.0002H64.2C64.2 11.4002 64.4 11.8002 64.7 12.1002C65.1 12.4002 65.5 12.5002 66 12.5002C66.6 12.5002 67 12.4002 67.3 12.1002C67.6 11.9002 67.8 11.5002 67.8 11.1002C67.8 10.6002 67.5 10.2002 67 10.0002C67.2 9.9002 67.4 9.8002 67.5 9.6002C67.6 9.4002 67.7 9.2002 67.7 9.0002C67.7 8.6002 67.5 8.2002 67.2 8.0002C66.9 7.8002 66.5 7.7002 65.9 7.7002C65.4 7.7002 65 7.8002 64.6 8.1002C64.3 8.4002 64.1 8.7002 64.1 9.1002H64.9C64.9 8.9002 65 8.7002 65.2 8.6002C65.4 8.5002 65.6 8.4002 65.9 8.4002C66.2 8.4002 66.4 8.5002 66.6 8.6002C66.8 8.7002 66.8 8.9002 66.8 9.1002C66.8 9.5002 66.5 9.8002 66 9.8002H65.1V10.5002H65.9C66.2 10.5002 66.5 10.6002 66.6 10.7002C66.8 10.8002 66.8 11.0002 66.8 11.3002C66.8 11.5002 66.7 11.7002 66.5 11.8002C66.7 11.7002 66.4 11.8002 66.1 11.8002Z" fill="black"/>
<path d="M69.9 11.1002V7.7002H69.1V12.3002H69.9L72 8.9002V12.3002H72.8V7.7002H72L69.9 11.1002Z" fill="black"/>
<path d="M76 12.3002V8.3002H77.6V7.7002H73.7V8.3002H75.2V12.3002H76Z" fill="black"/>
<path d="M79.9 12.3996C80.7 12.3996 81.3 12.0996 81.7 11.4996L81.2 11.0996C81.1 11.2996 80.9 11.3996 80.7 11.5996C80.5 11.6996 80.3 11.7996 80 11.7996C79.6 11.7996 79.3 11.6996 79 11.3996C78.7 11.0996 78.6 10.7996 78.6 10.2996H81.8V9.89961C81.8 9.19961 81.6 8.59961 81.3 8.19961C81 7.79961 80.5 7.59961 79.9 7.59961C79.5 7.59961 79.2 7.69961 78.9 7.89961C78.6 8.09961 78.3 8.39961 78.2 8.69961C78 9.09961 77.9 9.49961 77.9 9.89961V9.99961C77.9 10.6996 78.1 11.1996 78.5 11.6996C78.8 12.1996 79.3 12.3996 79.9 12.3996ZM79 8.59961C79.2 8.39961 79.5 8.29961 79.8 8.29961C80.1 8.29961 80.4 8.39961 80.6 8.59961C80.8 8.79961 80.9 9.09961 80.9 9.49961V9.59961H78.6C78.7 9.19961 78.8 8.79961 79 8.59961Z" fill="black"/>
<path d="M88.4 12.0002C88.7 11.8002 88.9 11.5002 88.9 11.0002C88.9 10.7002 88.8 10.5002 88.6 10.3002C88.4 10.1002 88.2 10.0002 87.9 9.9002C88.2 9.8002 88.3 9.7002 88.5 9.5002C88.6 9.3002 88.7 9.1002 88.7 8.9002C88.7 8.5002 88.5 8.2002 88.2 8.0002C87.9 7.8002 87.4 7.7002 86.8 7.7002H85V12.3002H87C87.6 12.3002 88.1 12.2002 88.4 12.0002ZM85.7 8.3002H86.8C87.5 8.3002 87.9 8.5002 87.9 9.0002C87.9 9.5002 87.5 9.6002 86.8 9.6002H85.8V8.3002H85.7ZM85.7 10.3002H87C87.7 10.3002 88 10.5002 88 11.0002C88 11.2002 87.9 11.4002 87.8 11.5002C87.6 11.6002 87.4 11.7002 87.1 11.7002H85.8V10.3002H85.7Z" fill="black"/>
<path d="M25.4 10.3996C26.2 9.39961 26.8 7.99961 26.6 6.59961C25.4 6.69961 23.9 7.39961 23 8.39961C22.2 9.29961 21.5 10.6996 21.7 12.0996C23.2 12.1996 24.6 11.3996 25.4 10.3996Z" fill="black"/>
<path d="M28.5 19.2997C28.5 16.2997 31 14.7997 31.1 14.6997C29.7 12.5997 27.4 12.2997 26.7 12.2997C25.6 12.1997 24.4 12.5997 23.5 12.9997C22.9 13.1997 22.4 13.3997 22 13.3997C21.6 13.3997 21.1 13.1997 20.5 12.9997C19.7 12.6997 18.9 12.3997 18 12.3997C16 12.3997 14.1 13.5997 13 15.3997C10.8 19.0997 12.5 24.4997 14.5 27.4997C15.5 28.9997 16.7 30.5997 18.3 30.4997C19 30.4997 19.5 30.2997 20.1 29.9997C20.7 29.6997 21.3 29.4997 22.3 29.4997C23.2 29.4997 23.8 29.7997 24.4 29.9997C25 30.1997 25.5 30.4997 26.3 30.3997C28 30.3997 29 28.8997 30 27.4997C31.2 25.7997 31.7 24.1997 31.7 24.0997C31.7 24.0997 28.5 22.8997 28.5 19.2997Z" fill="black"/>
<path d="M80.4 22.1002C79.5 21.8002 78.9 21.4002 78.6 21.1002C78.2 20.8002 78 20.4002 78 19.9002C78 19.5002 78.2 19.1002 78.5 18.8002C78.9 18.5002 79.5 18.3002 80.2 18.3002C81.1 18.3002 81.9 18.5002 82.6 18.9002L83.1 17.3002C82.3 16.9002 81.4 16.7002 80.2 16.7002C78.9 16.7002 77.9 17.0002 77.1 17.7002C76.3 18.4002 75.9 19.2002 75.9 20.2002C75.9 21.8002 77 23.0002 79.2 23.8002C80 24.1002 80.6 24.4002 80.9 24.8002C81.3 25.1002 81.4 25.6002 81.4 26.1002C81.4 26.7002 81.2 27.1002 80.8 27.5002C80.4 27.8002 79.8 28.0002 79 28.0002C77.9 28.0002 77 27.7002 76.1 27.2002L75.6 28.9002C76.4 29.4002 77.5 29.7002 78.9 29.7002C80.4 29.7002 81.5 29.3002 82.3 28.6002C83.1 27.9002 83.4 27.1002 83.4 26.0002C83.4 25.1002 83.1 24.4002 82.6 23.8002C82.3 23.1002 81.5 22.5002 80.4 22.1002Z" fill="black"/>
<path d="M44.2 16.7998L40.1 29.2998H42.2L43.3 25.5998H47.4L48.6 29.2998H50.8L46.7 16.7998H44.2ZM43.8 24.0998L44.9 20.7998C45.2 19.7998 45.4 18.9998 45.5 18.3998C45.8 19.5998 46 20.3998 46.1 20.7998L47.2 24.0998H43.8Z" fill="black"/>
<path d="M57.6 20.0996C56.2 20.0996 55.2 20.5996 54.5 21.6996L54.4 20.2996H52.6C52.6 21.2996 52.7 22.2996 52.7 23.2996V32.9996H54.7V28.1996C55.2 29.0996 56.1 29.4996 57.3 29.4996C58.4 29.4996 59.3 29.0996 60.1 28.2996C60.9 27.3996 61.4 26.1996 61.4 24.6996C61.4 23.2996 61 22.1996 60.3 21.3996C59.5 20.4996 58.6 20.0996 57.6 20.0996ZM58.6 27.0996C58.2 27.6996 57.6 27.9996 56.8 27.9996C56.1 27.9996 55.6 27.7996 55.2 27.2996C54.8 26.7996 54.6 26.2996 54.6 25.5996V24.0996C54.6 23.8996 54.6 23.6996 54.7 23.4996C54.8 22.9996 55.1 22.4996 55.5 22.1996C55.9 21.8996 56.4 21.6996 56.9 21.6996C57.6 21.6996 58.2 21.9996 58.7 22.5996C59.1 23.1996 59.3 23.8996 59.3 24.7996C59.3 25.6996 59 26.4996 58.6 27.0996Z" fill="black"/>
<path d="M68 20.0996C66.6 20.0996 65.6 20.5996 64.9 21.6996L64.8 20.2996H63C63 21.2996 63.1 22.2996 63.1 23.2996V32.9996H65.1V28.1996C65.6 29.0996 66.5 29.4996 67.7 29.4996C68.8 29.4996 69.7 29.0996 70.5 28.2996C71.3 27.3996 71.8 26.1996 71.8 24.6996C71.8 23.2996 71.4 22.1996 70.7 21.3996C70 20.4996 69.1 20.0996 68 20.0996ZM69.1 27.0996C68.7 27.6996 68.1 27.9996 67.3 27.9996C66.6 27.9996 66.1 27.7996 65.7 27.2996C65.3 26.7996 65.1 26.2996 65.1 25.5996V24.0996C65.1 23.8996 65.1 23.6996 65.2 23.4996C65.3 22.9996 65.6 22.4996 66 22.1996C66.4 21.8996 66.9 21.6996 67.4 21.6996C68.1 21.6996 68.7 21.9996 69.2 22.5996C69.6 23.1996 69.8 23.8996 69.8 24.7996C69.8 25.6996 69.5 26.4996 69.1 27.0996Z" fill="black"/>
<path d="M88 18L86 18.6V20.3H84.7V21.8H86V26.4C86 27.5 86.2 28.4 86.7 28.8C87.2 29.3 87.8 29.5 88.6 29.5C89.3 29.5 89.8 29.4 90.2 29.3L90.1 27.8C89.9 27.9 89.6 27.9 89.2 27.9C88.4 27.9 88 27.3 88 26.2V21.8H90.2V20.3H88V18Z" fill="black"/>
<path d="M95.9 20.0996C94.5 20.0996 93.4 20.4996 92.6 21.3996C91.8 22.2996 91.4 23.3996 91.4 24.7996C91.4 26.0996 91.8 27.1996 92.6 28.0996C93.4 28.9996 94.5 29.3996 95.8 29.3996C97.2 29.3996 98.3 28.8996 99.1 27.9996C99.9 27.0996 100.3 25.9996 100.3 24.5996C100.3 23.1996 99.9 22.0996 99.1 21.2996C98.4 20.4996 97.3 20.0996 95.9 20.0996ZM97.7 26.9996C97.3 27.6996 96.7 28.0996 95.9 28.0996C95.1 28.0996 94.5 27.6996 94.1 26.9996C93.7 26.3996 93.6 25.6996 93.6 24.8996C93.6 23.9996 93.8 23.2996 94.1 22.6996C94.5 21.9996 95.1 21.5996 96 21.5996C96.8 21.5996 97.4 21.9996 97.8 22.6996C98.2 23.2996 98.3 23.9996 98.3 24.7996C98.2 25.5996 98.1 26.2996 97.7 26.9996Z" fill="black"/>
<path d="M105 20.5998C104.5 20.9998 104.2 21.3998 104 21.9998H103.9L103.8 20.2998H102C102 21.1998 102.1 22.0998 102.1 23.0998V29.2998H104.1V24.5998C104.1 23.8998 104.3 23.2998 104.6 22.7998C105 22.2998 105.5 21.9998 106.3 21.9998C106.5 21.9998 106.7 21.9998 106.9 22.0998V20.1998C106.7 20.1998 106.6 20.1998 106.4 20.1998C105.9 20.0998 105.4 20.2998 105 20.5998Z" fill="black"/>
<path d="M116 24.4002C116 23.3002 115.7 22.3002 115.2 21.6002C114.5 20.6002 113.5 20.2002 112.2 20.2002C110.9 20.2002 109.8 20.7002 109 21.6002C108.2 22.5002 107.9 23.6002 107.9 25.0002C107.9 26.4002 108.3 27.5002 109.1 28.3002C109.9 29.1002 111 29.5002 112.4 29.5002C113.6 29.5002 114.6 29.3002 115.5 28.9002L115.2 27.5002C114.5 27.8002 113.6 27.9002 112.7 27.9002C111.9 27.9002 111.2 27.7002 110.7 27.3002C110.1 26.8002 109.8 26.1002 109.8 25.3002H115.9C116 25.0002 116 24.7002 116 24.4002ZM109.8 23.9002C109.9 23.3002 110.1 22.8002 110.4 22.3002C110.8 21.8002 111.4 21.5002 112 21.5002C112.7 21.5002 113.3 21.8002 113.6 22.3002C113.9 22.7002 114 23.2002 114 23.8002L109.8 23.9002Z" fill="black"/>
</g>
<defs>
<clipPath id="clip0">
<rect width="128" height="38" fill="white"/>
</clipPath>
</defs>
</svg>
