<svg width="128" height="38" viewBox="0 0 128 38" fill="none" xmlns="http://www.w3.org/2000/svg">
<path d="M123.3 38H4.7C2.1 38 0 35.9 0 33.3V4.8C0 2.1 2.1 0 4.7 0H123.2C125.8 0 127.9 2.1 127.9 4.7V33.2C128 35.9 125.9 38 123.3 38Z" fill="white"/>
<path d="M9.4 7.90039C9.2 8.20039 9 8.60039 9 9.20039V29.7004C9 30.3004 9.2 30.7004 9.4 31.0004H9.5L21.3 19.5004V19.2004L9.4 7.90039Z" fill="url(#paint0_linear)"/>
<path d="M25.3 23.4L21.4 19.6V19.3L25.3 15.5H25.4L30.1 18.1C31.4 18.8 31.4 20 30.1 20.8L25.3 23.4Z" fill="url(#paint1_linear)"/>
<path d="M25.4 23.3004L21.4 19.4004L9.40002 30.9004C9.80002 31.4004 10.6 31.4004 11.4 31.0004L25.4 23.3004Z" fill="url(#paint2_linear)"/>
<path d="M25.4 15.5003L11.4 7.80026C10.6 7.40026 9.90002 7.40026 9.40002 7.90026L21.3 19.4003L25.4 15.5003Z" fill="url(#paint3_linear)"/>
<path d="M42.7 8.7C42.7 8.4 42.6 8.1 42.3 7.9C42.1 7.7 41.7 7.6 41.3 7.6C40.9 7.6 40.6 7.7 40.4 7.9C40.2 8.1 40 8.3 40 8.6H39.2C39.2 8.3 39.3 8 39.5 7.7C39.7 7.4 39.9 7.2 40.3 7.1C40.6 7.1 40.9 7 41.3 7C42 7 42.5 7.2 42.9 7.5C43.3 7.8 43.5 8.2 43.5 8.8C43.5 9.1 43.4 9.3 43.2 9.6C43 9.8 42.8 10 42.5 10.1C43.2 10.3 43.6 10.8 43.6 11.5C43.6 12 43.4 12.5 43 12.8C42.6 13.1 42 13.3 41.3 13.3C40.9 13.3 40.5 13.2 40.2 13.1C39.9 13 39.6 12.8 39.4 12.5C39.2 12.2 39.1 11.9 39.1 11.6H40C40 11.9 40.1 12.2 40.4 12.4C40.7 12.6 41 12.7 41.4 12.7C41.8 12.7 42.2 12.6 42.5 12.4C42.8 12.2 42.9 11.9 42.9 11.6C42.9 10.9 42.5 10.5 41.6 10.5H40.8V9.7H41.6C42 9.7 42.3 9.6 42.5 9.4C42.6 9.3 42.7 9 42.7 8.7Z" fill="black"/>
<path d="M47.4 13.0996C47.4 12.9996 47.3 12.8996 47.3 12.5996C46.9 12.9996 46.5 13.1996 46 13.1996C45.5 13.1996 45.2 13.0996 44.9 12.7996C44.6 12.5996 44.5 12.1996 44.5 11.7996C44.5 11.2996 44.7 10.9996 45 10.6996C45.4 10.3996 45.9 10.2996 46.5 10.2996H47.3V9.99961C47.3 9.69961 47.2 9.49961 47.1 9.39961C46.9 9.19961 46.7 9.19961 46.4 9.19961C46.1 9.19961 45.9 9.29961 45.7 9.39961C45.5 9.49961 45.4 9.69961 45.4 9.89961H44.6C44.6 9.69961 44.7 9.49961 44.8 9.29961C45 9.09961 45.2 8.89961 45.5 8.79961C45.8 8.69961 46.1 8.59961 46.4 8.59961C46.9 8.59961 47.3 8.69961 47.6 8.99961C47.9 9.19961 48 9.59961 48 9.99961V12.0996C48 12.4996 48.1 12.7996 48.2 13.0996V13.1996H47.4V13.0996ZM46.1 12.4996C46.3 12.4996 46.6 12.3996 46.8 12.2996C47 12.1996 47.2 11.9996 47.3 11.7996V10.8996H46.7C45.7 10.8996 45.3 11.1996 45.3 11.6996C45.3 11.8996 45.4 12.0996 45.5 12.2996C45.6 12.4996 45.8 12.4996 46.1 12.4996Z" fill="black"/>
<path d="M52.2 9.29961H50.1V13.0996H49.3V8.59961H52.2V9.29961Z" fill="black"/>
<path d="M56.8 10.8996C56.8 11.5996 56.6 12.0996 56.3 12.4996C56 12.9996 55.5 13.1996 55 13.1996C54.4 13.1996 54 12.9996 53.7 12.6996V14.8996H52.9V8.59961H53.6V9.09961C54 8.69961 54.4 8.59961 55 8.59961C55.6 8.59961 56 8.79961 56.3 9.19961C56.6 9.59961 56.8 10.0996 56.8 10.8996ZM56 10.7996C56 10.2996 55.9 9.89961 55.7 9.59961C55.5 9.29961 55.2 9.19961 54.8 9.19961C54.3 9.19961 54 9.39961 53.7 9.79961V11.9996C53.9 12.3996 54.3 12.5996 54.8 12.5996C55.2 12.5996 55.5 12.4996 55.7 12.1996C55.9 11.7996 56 11.3996 56 10.7996Z" fill="black"/>
<path d="M59.2 12L60.3 8.6H61.1L59.3 13.8C59 14.5 58.6 14.9 57.9 14.9H57.8L57.5 14.8V14.2H57.7C58 14.2 58.2 14.1 58.3 14C58.4 13.9 58.6 13.7 58.7 13.4L58.9 12.9L57.3 8.5H58.2L59.2 12Z" fill="black"/>
<path d="M64.3 9.9C64.3 9.7 64.2 9.5 64.1 9.4C63.9 9.3 63.7 9.2 63.4 9.2C63.1 9.2 62.9 9.3 62.7 9.4C62.5 9.5 62.4 9.7 62.4 9.9H61.6C61.6 9.5 61.8 9.2 62.1 8.9C62.4 8.7 62.8 8.5 63.3 8.5C63.8 8.5 64.3 8.6 64.6 8.8C64.9 9 65 9.3 65 9.8C65 10 64.9 10.2 64.8 10.4C64.7 10.6 64.5 10.7 64.3 10.8C64.8 11 65.1 11.3 65.1 11.8C65.1 12.2 64.9 12.5 64.6 12.8C64.3 13 63.8 13.2 63.3 13.2C62.8 13.2 62.3 13.1 62 12.8C61.7 12.5 61.5 12.2 61.5 11.8H62.3C62.3 12 62.4 12.2 62.6 12.4C62.8 12.6 63 12.6 63.3 12.6C63.6 12.6 63.8 12.5 64 12.4C64.2 12.3 64.3 12.1 64.3 11.9C64.3 11.6 64.2 11.5 64.1 11.4C63.9 11.3 63.7 11.2 63.4 11.2H62.6V10.5H63.5C64.1 10.5 64.3 10.3 64.3 9.9Z" fill="black"/>
<path d="M69.2 8.59961H70V13.0996H69.2V9.79961L67.1 13.0996H66.3V8.59961H67.1V11.8996L69.2 8.59961Z" fill="black"/>
<path d="M74.6 9.29961H73.1V13.1996H72.3V9.29961H70.8V8.59961H74.6V9.29961Z" fill="black"/>
<path d="M76.9 13.1996C76.3 13.1996 75.8 12.9996 75.4 12.5996C75 12.1996 74.8 11.6996 74.8 10.9996V10.8996C74.8 10.4996 74.9 10.0996 75.1 9.69961C75.3 9.39961 75.5 9.09961 75.8 8.89961C76.1 8.69961 76.4 8.59961 76.8 8.59961C77.4 8.59961 77.9 8.79961 78.2 9.19961C78.5 9.59961 78.7 10.0996 78.7 10.7996V11.0996H75.6C75.6 11.4996 75.7 11.8996 76 12.1996C76.3 12.4996 76.6 12.5996 77 12.5996C77.3 12.5996 77.5 12.4996 77.7 12.3996C77.9 12.2996 78.1 12.0996 78.2 11.9996L78.7 12.3996C78.3 12.8996 77.7 13.1996 76.9 13.1996ZM76.8 9.19961C76.5 9.19961 76.2 9.29961 76 9.49961C75.8 9.69961 75.7 9.99961 75.6 10.3996H77.9V10.2996C77.9 9.89961 77.8 9.59961 77.6 9.39961C77.4 9.29961 77.2 9.19961 76.8 9.19961Z" fill="black"/>
<path d="M85.5 13.0996H84.7V11.1996H82.6V13.0996H81.8V8.59961H82.6V10.4996H84.7V8.59961H85.5V13.0996Z" fill="black"/>
<path d="M89.6 13.0996C89.6 12.9996 89.5 12.8996 89.5 12.5996C89.1 12.9996 88.7 13.1996 88.2 13.1996C87.7 13.1996 87.4 13.0996 87.1 12.7996C86.8 12.5996 86.7 12.1996 86.7 11.7996C86.7 11.2996 86.9 10.9996 87.2 10.6996C87.6 10.3996 88.1 10.2996 88.7 10.2996H89.5V9.99961C89.5 9.69961 89.4 9.49961 89.3 9.39961C89.1 9.19961 88.9 9.19961 88.6 9.19961C88.3 9.19961 88.1 9.29961 87.9 9.39961C87.7 9.49961 87.6 9.69961 87.6 9.89961H86.8C86.8 9.69961 86.9 9.49961 87 9.29961C87.2 9.09961 87.4 8.89961 87.7 8.79961C88 8.69961 88.3 8.59961 88.6 8.59961C89.1 8.59961 89.5 8.69961 89.8 8.99961C90.1 9.29961 90.3 9.59961 90.3 10.0996V12.1996C90.3 12.5996 90.4 12.8996 90.5 13.1996V13.2996H89.6V13.0996ZM88.3 12.4996C88.5 12.4996 88.8 12.3996 89 12.2996C89.2 12.1996 89.4 11.9996 89.5 11.7996V10.8996H88.9C87.9 10.8996 87.5 11.1996 87.5 11.6996C87.5 11.8996 87.6 12.0996 87.7 12.2996C87.8 12.4996 88 12.4996 88.3 12.4996Z" fill="black"/>
<path d="M60.5 24.9996C60.5 22.6996 62.3 21.0996 64.6 21.0996C66.8 21.0996 68.7 22.7996 68.7 24.9996C68.7 27.2996 66.9 28.8996 64.6 28.8996C62.3 28.8996 60.5 27.1996 60.5 24.9996ZM62.3 24.9996C62.3 26.3996 63.4 27.3996 64.6 27.3996C65.8 27.3996 66.9 26.3996 66.9 24.9996C66.9 23.5996 65.8 22.5996 64.6 22.5996C63.3 22.5996 62.3 23.4996 62.3 24.9996Z" fill="black"/>
<path d="M51.6 24.9996C51.6 22.6996 53.4 21.0996 55.7 21.0996C57.9 21.0996 59.8 22.7996 59.8 24.9996C59.8 27.2996 58 28.8996 55.7 28.8996C53.4 28.8996 51.6 27.1996 51.6 24.9996ZM53.4 24.9996C53.4 26.3996 54.5 27.3996 55.7 27.3996C56.9 27.3996 58 26.3996 58 24.9996C58 23.5996 56.9 22.5996 55.7 22.5996C54.4 22.5996 53.4 23.4996 53.4 24.9996Z" fill="black"/>
<path d="M45.1 23.8996V22.1996H50.9C51 22.4996 51 22.8996 51 23.1996C51 24.4996 50.6 25.9996 49.5 27.0996C48.4 28.1996 47 28.7996 45.1 28.7996C41.6 28.7996 38.7 26.0996 38.7 22.6996C38.7 19.2996 41.6 16.5996 45.1 16.5996C47 16.5996 48.4 17.2996 49.4 18.2996L48.2 19.4996C47.5 18.7996 46.5 18.2996 45.1 18.2996C42.6 18.2996 40.6 20.2996 40.6 22.6996C40.6 25.1996 42.6 27.0996 45.1 27.0996C46.7 27.0996 47.7 26.4996 48.3 25.8996C48.8 25.3996 49.1 24.6996 49.2 23.7996H45.1V23.8996Z" fill="black"/>
<path d="M84.9 21C87 21 88 22.6 88.4 23.5L88.6 23.9L83.2 26.1C83.6 26.9 84.3 27.3 85.2 27.3C86.1 27.3 86.7 26.9 87.2 26.2L88.6 27.1C88.2 27.7 87.1 28.8 85.2 28.8C82.9 28.8 81.2 27.1 81.2 24.9C81.1 22.6 82.8 21 84.9 21ZM85 22.5C84.1 22.5 82.8 23.3 82.9 24.8L86.5 23.3C86.3 22.9 85.7 22.5 85 22.5Z" fill="black"/>
<path d="M80.2 28.5996H78.4V17.0996H80.2V28.5996Z" fill="black"/>
<path d="M75.4 21.9004L75.5 21.3004H77.2V28.4004C77.2 31.3004 75.4 32.5004 73.3 32.5004C71.3 32.5004 70.1 31.2004 69.7 30.2004L71.3 29.6004C71.6 30.2004 72.3 31.0004 73.3 31.0004C74.6 31.0004 75.5 30.2004 75.5 28.7004V28.0004H75.4C75 28.5004 74.2 28.9004 73.3 28.9004C71.3 28.9004 69.4 27.2004 69.4 25.0004C69.4 22.8004 71.3 21.1004 73.3 21.1004C74.3 21.0004 75 21.4004 75.4 21.9004ZM71.2 25.0004C71.2 26.4004 72.2 27.4004 73.5 27.4004C74.7 27.4004 75.7 26.4004 75.7 25.0004C75.7 23.6004 74.7 22.6004 73.5 22.6004C72.2 22.6004 71.2 23.6004 71.2 25.0004Z" fill="black"/>
<path d="M92.5 17.0996H96.8C98.8 17.0996 100.7 18.4996 100.7 20.6996C100.7 22.8996 98.8 24.2996 96.8 24.2996H94.3V28.6996H92.5V17.0996ZM94.3 22.6996H96.8C98.1 22.6996 98.9 21.5996 98.9 20.6996C98.9 19.7996 98.1 18.6996 96.8 18.6996H94.3V22.6996Z" fill="black"/>
<path d="M104.6 22.8C105.2 21.6 106.5 21 107.8 21C109.8 21 111.4 22.1 111.4 24.2V28.6H109.7V27.7H109.6C109.2 28.3 108.5 28.8 107.3 28.8C105.7 28.8 104.3 27.8 104.3 26.3C104.3 24.6 106 23.7 107.7 23.7C108.5 23.7 109.2 24 109.6 24.1V24C109.6 23.1 108.6 22.5 107.7 22.5C107 22.5 106.4 22.7 106.1 23.3L104.6 22.8ZM106.2 26.4C106.2 27.1 107 27.4 107.6 27.4C108.6 27.4 109.6 26.6 109.7 25.6C109.2 25.4 108.9 25.2 108.1 25.2C107.2 25.1 106.2 25.5 106.2 26.4Z" fill="black"/>
<path d="M115.7 26.2998L117.7 21.2998H119.7L114.8 32.1998H112.9L114.7 28.2998L111.5 21.2998H113.4L115.7 26.2998Z" fill="black"/>
<path d="M103.4 28.5996H101.6V17.0996H103.4V28.5996Z" fill="black"/>
<defs>
<linearGradient id="paint0_linear" x1="20.1127" y1="30.0237" x2="0.906799" y2="9.94969" gradientUnits="userSpaceOnUse">
<stop stop-color="#00A0FF"/>
<stop offset="0.0066" stop-color="#00A1FF"/>
<stop offset="0.2601" stop-color="#00BEFF"/>
<stop offset="0.5122" stop-color="#00D2FF"/>
<stop offset="0.7604" stop-color="#00DFFF"/>
<stop offset="1" stop-color="#00E3FF"/>
</linearGradient>
<linearGradient id="paint1_linear" x1="31.8029" y1="19.3979" x2="2.83192" y2="19.3979" gradientUnits="userSpaceOnUse">
<stop stop-color="#FFE000"/>
<stop offset="0.4087" stop-color="#FFBD00"/>
<stop offset="0.7754" stop-color="#FFA500"/>
<stop offset="1" stop-color="#FF9C00"/>
</linearGradient>
<linearGradient id="paint2_linear" x1="15.3068" y1="24.9117" x2="-10.7381" y2="-2.31021" gradientUnits="userSpaceOnUse">
<stop stop-color="#FF3A44"/>
<stop offset="1" stop-color="#C31162"/>
</linearGradient>
<linearGradient id="paint3_linear" x1="-0.796075" y1="30.717" x2="10.8341" y2="18.5612" gradientUnits="userSpaceOnUse">
<stop stop-color="#32A071"/>
<stop offset="0.0685" stop-color="#2DA771"/>
<stop offset="0.4762" stop-color="#15CF74"/>
<stop offset="0.8009" stop-color="#06E775"/>
<stop offset="1" stop-color="#00F076"/>
</linearGradient>
</defs>
</svg>
